<?xml version="1.0" encoding="UTF-8"?>
<!DOCTYPE svg PUBLIC "-//W3C//DTD SVG 1.1//EN" "http://www.w3.org/Graphics/SVG/1.1/DTD/svg11.dtd">
<!-- Creator: CorelDRAW 2021 (64-Bit) -->
<svg xmlns="http://www.w3.org/2000/svg" xml:space="preserve" width="68.2102mm" height="23.2844mm" version="1.1" style="shape-rendering:geometricPrecision; text-rendering:geometricPrecision; image-rendering:optimizeQuality; fill-rule:evenodd; clip-rule:evenodd"
viewBox="0 0 2466.73 842.05"
 xmlns:xlink="http://www.w3.org/1999/xlink"
 xmlns:xodm="http://www.corel.com/coreldraw/odm/2003">
 <defs>
  <style type="text/css">
   <![CDATA[
    .str0 {stroke:#FFFFCC;stroke-width:7.23;stroke-linecap:round;stroke-linejoin:round;stroke-miterlimit:22.9256}
    .fil0 {fill:#FFFFCC}
    .fil1 {fill:#FFFFCC;fill-rule:nonzero}
   ]]>
  </style>
 </defs>
 <g id="Layer_x0020_1">
  <metadata id="CorelCorpID_0Corel-Layer"/>
  <path class="fil0 str0" d="M154.62 3.62l532.81 0c83.05,0 151.01,67.95 151.01,151.01l0 220.03 -0.57 0 -1.08 -2.17 -0.54 0 -1.08 0 -1.08 0 -0.54 0 -1.08 0 -1.62 0 -1.62 -1.08 -2.17 0 -1.62 0 -7.58 1.08 -6.49 2.17 -7.03 2.61 -7.04 4.24 -7.58 5.23 -7.58 6.77 -8.12 7.94 -6 6.6 -0.01 0.01c-0.39,-3.03 -0.92,-6.04 -1.59,-9.02l0 -0.02 3.8 -24.36 -12.73 0c-4.53,-8.65 -10.43,-16.77 -17.68,-24.02l-248.39 -248.39c-38.72,-38.72 -102.08,-38.72 -140.79,0l-248.39 248.39c-38.72,38.72 -38.72,102.08 0,140.79l248.39 248.39c38.72,38.72 102.08,38.72 140.79,0l179.57 -179.57 -8.47 60.11 73.06 0 20.57 -145.58 0.54 -1.08 0 -1.08 1.08 -1.08 0 -1.08 1.08 -1.08 0.54 0 1.08 0 2.71 -4.87 3.79 -4.33 3.79 -4.33 4.33 -4.33 4.33 -3.79 4.33 -2.71 4.87 -2.17 4.87 -1.62 1.08 0 1.08 -0.54 0.54 0 1.08 0 0.54 0 1.08 -0.54 0.54 0 1.08 0 1.62 0 1.62 0.54 2.17 0 2.16 0.54 1.62 1.08 1.08 0 1.08 0.54 1.62 1.08 1.62 1.08 1.08 1.08 1.62 0.54 1.08 1.08 1.08 1.08 2.16 2.17 2.71 2.17 1.08 1.62 1.62 1.08 1.08 1.62 1.08 1.62 2.17 3.25 3.25 2.16 3.27 -6.39 0 229.33c0,83.05 -67.95,151.01 -151.01,151.01l-532.81 0c-83.05,0 -151.01,-67.95 -151.01,-151.01l0 -532.81c0,-83.05 67.95,-151.01 151.01,-151.01z"/>
  <path class="fil1 str0" d="M638.7 328.1l-8.12 -1.08 -7.58 -1.62 -7.58 -1.62 -7.58 -1.62 -3.79 0c-1.8,-0.72 -2.89,-1.44 -3.25,-2.17l-4.33 0c-1.8,0 -2.89,0 -3.25,0l-7.58 -1.62c-2.89,0 -5.05,0 -6.49,0l-2.71 0 -2.17 0 -2.17 0 -2.16 -1.08 -2.71 0 -2.16 0 -2.17 -0.54 -2.71 0 -2.71 0 -2.17 0 -2.71 0 -2.17 -0.54 -2.71 0 -2.17 0 -2.71 0 -2.17 0c-6.49,0 -12.99,0.18 -19.48,0.54 -6.49,0.36 -12.99,1.08 -19.48,2.16 -12.27,1.08 -23.99,3.43 -35.18,7.04 -4.69,1.44 -9.83,3.25 -15.43,5.41 -5.59,2.08 -10.91,4.42 -15.96,6.95 -10.1,4.69 -19.39,10.28 -27.87,16.78 -8.48,6.4 -16.05,13.53 -22.73,21.29 -6.68,7.76 -12.09,15.7 -16.24,23.99 -4.15,8.3 -7.12,16.96 -8.93,26.16 -1.8,9.2 -2.8,15.96 -2.98,20.2 -0.18,4.33 -0.27,7.76 -0.27,10.28 0,9.38 0.63,17.32 1.89,23.99 1.26,6.68 3.43,13.53 6.49,20.57 3.07,7.03 6.67,12.99 10.82,17.86 4.15,4.87 9.02,9.47 14.61,13.8 5.59,4.33 11.64,8.12 18.13,11.36l20.02 7.58c6.49,2.17 13.71,3.79 21.65,4.87l23.81 1.08 3.25 0 3.25 0 2.71 0 3.25 0 2.17 0 3.25 0 3.25 0c1.8,-0.36 2.89,-0.72 3.25,-1.08l3.25 0c1.8,-0.36 2.89,-0.72 3.25,-1.08l3.24 0 4.33 -1.08 3.25 -0.54 4.33 -1.08 4.33 -1.08c2.52,-0.36 4.15,-0.72 4.87,-1.08l9.2 -66.57 -67.65 0 8.12 -58.45 146.13 0 -26.52 188.34 -5.95 2.71 -7.58 1.62 -8.66 1.08 -9.74 0.54 -5.41 0 -5.41 0.54 -5.41 0 -5.41 1.08 -5.41 0 -5.41 0.54 -5.95 0 -5.41 2.16 -2.71 0 -2.17 0 -2.71 0 -2.17 0 -3.25 0 -2.16 0 -2.71 0 -2.17 0 -2.71 0 -2.17 0 -2.71 0 -2.17 0 -2.71 0 -2.17 0 -2.16 0 -2.17 0 -6.49 0c-7.94,0 -15.51,-0.18 -22.73,-0.54 -7.22,-0.36 -14.25,-1.08 -21.11,-2.17 -14.79,-1.44 -28.69,-4.06 -41.67,-7.85 -12.99,-3.79 -24.99,-8.66 -35.99,-14.61 -11,-5.95 -20.3,-12.81 -27.87,-20.57 -7.58,-7.76 -14.61,-15.96 -21.11,-24.62l-15.16 -25.44c-2.16,-4.33 -4.15,-8.66 -5.95,-12.99 -0.36,-1.08 -1.99,-5.59 -4.87,-13.53l-4.87 -28.14 0 -1.62 0 -2.16 0 -1.62 0 -1.62 0 -3.25 0 -2.17 0 -2.17 0 -5.95 0 -6.49 0 -6.49c0,-2.89 0,-5.05 0,-6.49 0,-2.89 0.72,-5.05 2.17,-6.49 0,-2.89 0.36,-5.05 1.08,-6.49l1.62 -6.49 1.62 -6.49c2.17,-7.21 3.79,-12.36 4.87,-15.42 1.08,-3.07 3.07,-7.85 5.95,-14.34 4.33,-9.74 9.83,-19.21 16.51,-28.41 6.68,-9.2 14.16,-18.13 22.46,-26.79l28.14 -25.43c9.74,-7.58 21.11,-14.79 34.1,-21.65 12.99,-6.85 26.88,-12.27 41.67,-16.23 5.05,-1.44 12,-2.98 20.84,-4.6 8.84,-1.62 20.02,-3.34 33.56,-5.14 13.53,-1.8 30.4,-2.71 50.6,-2.71l7.58 0 7.58 0 7.03 0 7.58 0 7.04 2.16 7.03 0 7.04 1.08 7.03 0c4.69,0 9.2,0.72 13.53,2.25l12.45 2.35 11.91 2.8c5.05,0.81 8.84,1.71 11.37,2.89l0 -1.08 -9.2 68.19zm126.1 81.18l1.08 1.08 8.12 -8.93 8.12 -7.94 -5.06 4.95 -70.96 90.22 -31.99 49.44 23.04 -163.46 73.06 0 -5.41 34.64zm104.45 -11.37l-34.1 66.57 3.27 -6.39 30.82 -60.18zm247.33 117.44c-1.08,6.49 -1.99,11.1 -2.71,13.8 -0.72,2.71 -2.34,6.77 -4.87,12.18 -3.24,8.66 -7.49,16.87 -12.72,24.63 -5.23,7.76 -11.1,14.79 -17.59,21.11 -6.49,6.31 -13.53,12 -21.11,17.05l-23.27 11.91c-8.3,2.89 -17.14,5.05 -26.52,6.49l-28.14 2.16c-9.74,0 -18.58,-0.63 -26.52,-1.89 -7.94,-1.26 -15.33,-3.16 -22.19,-5.68 -6.86,-2.52 -13.44,-5.86 -19.75,-10.01 -6.31,-4.15 -12.9,-9.29 -19.76,-15.42l-15.7 -17.86 -11.37 -20.03c-2.89,-7.58 -5.05,-14.97 -6.49,-22.19l-2.17 -23.81c0,-9.74 0.72,-18.76 2.17,-27.06 1.44,-8.3 3.97,-16.42 7.58,-24.35 3.61,-7.94 8.03,-15.61 13.26,-23 5.23,-7.4 8.75,-12 10.56,-13.8 3.97,-3.97 6.67,-6.68 8.12,-8.12 5.78,-5.77 12.99,-11.54 21.65,-17.32 6.49,-4.33 14.43,-8.48 23.81,-12.45 4.33,-1.8 7.67,-3.07 10.01,-3.79 2.35,-0.72 7.85,-1.89 16.51,-3.52 8.66,-1.62 14.07,-2.62 16.24,-2.98 5.41,0 9.38,0 11.91,0 3.97,0 7.4,0 10.28,0 2.89,0 7.76,0.72 14.61,2.16 9.02,1.08 16.78,3.07 23.27,5.96 6.49,1.8 13.17,4.87 20.02,9.2 6.86,4.33 13.17,9.02 18.94,14.07l15.15 17.32c2.53,3.25 4.33,5.77 5.41,7.58 1.08,1.8 2.98,5.86 5.68,12.18 2.71,6.31 4.78,13.8 6.22,22.46l2.17 24.9 0 -1.08c0,11.18 -0.9,20.92 -2.71,29.22zm-74.15 -42.67l-2.71 -10.37c-1.08,-3.7 -2.53,-6.68 -4.33,-8.84 -1.08,-2.98 -2.89,-5.68 -5.5,-8.21l-8.12 -6.68 -8.12 -4.96 -9.29 -2.71 -10.37 0 -10.82 0c-4.33,0.72 -8.03,1.62 -10.91,2.71 -2.89,1.08 -5.41,2.61 -7.58,4.42l-7.12 6.59 -6.49 7.67 -5.41 7.67 -2.17 4.33 -2.17 3.88 -2.25 4.42 -1.62 4.33 -1.62 4.96 -1.08 4.87 -1.08 4.96 -1.08 4.42 -1.08 4.87 0 3.88 0 3.79 0 3.34 0 11.46c0,3.7 0.72,6.94 2.16,9.92l3.79 8.75 4.87 7.12 5.95 5.96 6.49 4.96 6.49 3.34 7.03 2.17 1.62 1.08 1.62 0 1.08 0 1.62 0 2.17 0 3.25 0c5.05,0 8.84,0 11.37,0l10.82 -3.34 9.2 -6.04 8.12 -7.67 7.03 -9.38 5.41 -9.83 4.33 -10.46 3.79 -11 0 -2.26 0 -3.25 0 -3.33c0.72,-1.8 1.44,-2.89 2.16,-3.25l1.08 -3.34 0 -2.71 0.54 -3.34 0 -2.71 0 -1.17c0,-4.78 -0.36,-8.39 -1.08,-11zm344.21 147.12l-73.07 0 4.33 -27.06 -3.25 3.25 -2.62 2.71 -3.25 2.71 -3.16 2.17 -6.4 4.33 -6.4 3.25 -7.49 3.79 -6.4 2.71 -6.4 2.16 -6.4 0 -4.24 0c-1.8,0.72 -2.89,1.44 -3.25,2.17l-3.16 0c-1.8,0.72 -2.89,1.44 -3.16,2.17l-3.25 0 -3.16 0 -3.25 0 -3.33 0 -17.68 -1.62c-2.61,-0.36 -4.87,-0.63 -6.95,-0.81 -1.98,-0.18 -4.69,-0.81 -8.03,-1.89l-13.26 -6.58c-3.7,-2.53 -6.95,-5.68 -9.92,-9.29l-7.76 -11.54 -5.5 -12.63 -3.34 -14.25 0 -15.88 0 -2.17 0 -2.25 0 -2.17 0 -2.71 0 -2.26 0 -2.71 0 -2.71 22.46 -158.03 73.88 0 -19.39 130.43 -1.18 5.41 0 4.33 0 4.33 0 3.24 0 3.79 0 3.25 0 3.25 0 2.71 0 9.92c0,3.25 0,5.86 0,7.67l1.62 6.04 2.71 4.96 2.71 3.79 3.88 2.25 4.33 1.62 5.41 0 6.59 0 7.58 -1.62 7.67 -2.71 8.12 -4.33 7.67 -4.87 8.21 -6.04 8.12 -7.04 8.21 -8.66 22.28 -161.73 73.52 0 -34.64 245.16zm197 -246.25l2.16 0.54 3.25 0 3.25 0c1.8,0 2.89,0 3.25,0l3.25 0 2.71 0 3.25 0 2.71 -1.62 1.62 0 1.08 0 3.25 -0.54 2.16 0 3.25 0 2.17 0 1.62 0 1.08 -0.54 2.17 0 1.62 0 1.08 0c8.3,0 15.97,0.63 23,1.89 7.04,1.27 13.8,3.16 20.3,5.68 2.53,0.72 5.5,1.89 8.93,3.43 3.42,1.62 7.21,3.79 11.36,6.49 4.15,2.71 8.93,6.76 14.34,12.18 5.41,4.6 9.74,9.83 12.99,15.6l9.2 18.31 5.41 20.48 2.16 22.64c0,4.69 -0.18,9.47 -0.54,14.52 -0.36,5.05 -1.27,11.37 -2.71,18.85 -1.44,7.58 -4.15,15.52 -8.12,23.72 -3.61,9.02 -8.3,17.23 -14.07,24.8 -2.53,3.61 -5.23,7.04 -8.12,10.28 -2.89,3.16 -6.68,7.12 -11.37,11.81 -7.21,6.49 -15.06,12.54 -23.54,18.31 -8.48,5.77 -17.05,10.19 -25.71,13.17 -8.66,3.07 -18.13,5.41 -28.41,7.04 -10.28,1.62 -17.5,2.52 -21.65,2.71 -4.15,0.18 -7.49,0.27 -10.01,0.27l-2.17 0 -2.17 0 -2.16 0 -1.62 0 -2.17 0 -1.62 0 -2.16 0 -1.62 0 -2.17 0 -2.17 0 -1.62 0 -2.16 -0.9 -1.08 -1.8 -2.16 0 -2.71 -0.54 -2.17 0 -18.4 124.48 -73.07 0 38.97 -278.72 -11.36 9.2 -9.2 8.66 -7.04 7.58 -5.41 6.49 -4.33 5.95 -3.79 5.41 -3.79 4.33 -2.71 2.71 -1.08 1.08 -0.54 0 0 0.54 -1.08 1.08 -1.08 0 -0.54 0 -0.54 0.54 -0.54 0 -1.08 0 -1.08 0 -1.08 0 -1.08 0 0 -1.08 0 -1.08 0 -0.54 -0.54 -1.08 0.54 -4.33 1.08 -6.49 2.71 -8.12 4.33 -10.28 5.95 -11.37 7.58 -12.45 9.74 -12.45 12.45 -13.53 1.08 -1.08 1.08 -1.08 1.08 -1.08 1.08 -1.62 1.08 -1.08 1.08 -1.08 1.62 -1.08 1.08 -1.08 2.17 -2.17 3.25 -2.71 2.71 -2.17 3.25 -2.71 12.45 -90.92 73.06 0 -6.49 46.54zm-7.58 53.04l-18.4 136.29 1.62 1.17 1.08 1.08 1.62 0 1.08 0 1.08 0 1.62 1.62 1.08 0 2.17 0 2.71 0 2.71 0 3.25 0 2.17 0 5.95 0c2.53,0 5.95,0 10.28,0l14.61 -3.34c5.05,-1.8 9.02,-3.79 11.91,-6.04l10.28 -8.21 8.12 -9.38 6.49 -10.37 4.87 -10.46 4.33 -11.55 0.54 -1.71 0 -1.62 1.08 -3.88 0.54 -1.62 0 -1.62 1.62 -1.62 0 -1.71 0 -3.25 0 -1.71 0 -2.17 0 -1.62 0 -1.62 0 -3.33c0,-5.5 0,-9.56 0,-12.09l-2.71 -11 -4.42 -9.38 -6.59 -8.21 -8.21 -6.58 -9.29 -4.42 -11.54 -2.71 -13.17 0 -3.25 0 -1.71 0 -1.62 0 -2.16 0 -1.62 0 -3.34 0 -4.33 2.71 -3.34 0 -3.25 0 -2.26 0 -1.62 -1.62zm396.17 -161.1l3.79 -0.54 3.25 -1.08 3.25 -1.71 4.33 -1.62c1.8,-0.36 2.89,-0.72 3.25,-1.08l4.33 -1.08 1.62 -0.54 2.16 -1.08 3.79 -1.08 3.25 -0.63 4.33 -1.08c1.8,-0.36 2.89,-0.72 3.25,-1.08l4.33 -1.08 3.25 0 3.79 0 3.25 0 4.33 -1.71 7.03 -0.9 7.04 -1.71 6.49 0 7.58 0c8.66,0 16.42,0.72 23.27,2.16l21.65 4.87c6.49,2.17 12.81,5.05 18.94,8.66l16.78 11.36 13.53 14.61c3.97,4.69 7.21,10.1 9.74,16.24l5.41 18.4 2.17 20.02 0 5.95c0,2.53 0,5.96 0,10.28l-3.34 14.61 -4.96 13.53 -7.12 11.91c-1.8,3.25 -4.78,6.86 -8.84,10.83l-11 9.2 -12.09 7.03 -14.34 5.95 9.74 5.96 8.66 7.58 7.58 8.12 5.95 9.2 4.33 10.28 3.79 11.37 1.62 11.91 1.08 12.99c0,9.74 -0.9,18.04 -2.71,24.9 -1.08,7.58 -3.43,14.98 -7.04,22.19 -1.44,3.25 -3.16,6.49 -5.14,9.74 -1.99,3.25 -4.42,6.49 -7.31,9.74 -3.97,5.41 -9.11,10.82 -15.42,16.23 -6.31,5.41 -13.26,10.19 -20.84,14.34 -7.58,4.15 -15.51,7.4 -23.81,9.74 -8.3,2.34 -17.14,4.06 -26.52,5.14l-28.68 2.16 -2.71 0 -2.16 0 -2.17 0 -2.16 0 -2.17 -2.16 -2.17 0 -1.62 0 -2.16 0 -4.33 0 -3.79 0 -4.33 0 -3.79 0 -3.79 -1.62 -3.24 0 -3.79 -0.54 -3.25 -0.54 -7.03 -1.62 -7.04 -2.16 -7.58 -2.71 -7.58 -3.24 -8.12 -3.25 -8.12 -3.79 9.74 -71.44 11.91 7.21 11.37 5.5 10.28 4.42 10.28 3.34 4.87 1.62 4.87 1.18 4.33 1.08c2.52,0 4.15,0 4.87,0 3.97,0 7.03,0 9.2,0l9.2 0 11.37 0c5.05,-0.72 8.84,-1.62 11.37,-2.71l10.28 -4.33 9.2 -6.49 7.58 -7.58 5.41 -8.66 3.25 -8.66 1.08 -10.28c0,-4.33 -0.36,-7.58 -1.08,-9.74l-3.25 -8.66c-1.08,-2.53 -2.89,-5.05 -5.41,-7.58l-7.03 -7.04 -8.66 -4.87 -10.28 -4.33 -11.91 -2.17 -12.45 0 -3.25 0 -2.16 0 -1.08 0 -1.08 0 -1.08 0 -1.08 0 -2.17 0 -1.62 0 -2.17 0 -2.16 0 -2.71 2.17 -2.16 0 -2.71 0 -1.62 0.54 8.75 -70.36 5.5 2.16c2.52,0 4.51,0.36 5.95,1.08l5.5 0c2.53,0 4.51,0.36 5.95,1.08 2.62,0.36 4.24,0.72 4.96,1.08l4.96 0 2.17 0 2.71 0 2.17 0 2.25 0 11.46 0c5.05,-0.54 8.93,-1.26 11.46,-2.17l10.37 -3.88 9.29 -6.04 7.13 -7.13 5.5 -7.67 3.25 -8.75 0 -9.29c0,-3.7 0,-6.4 0,-8.3 0,-2.17 -0.72,-4.69 -2.17,-7.67l-4.42 -6.59 -4.87 -6.04 -7.12 -4.87 -7.58 -3.88 -8.75 -3.25 -9.83 0 -1.08 0 -1.08 0 -1.08 0 -1.08 0 -9.29 0c-3.7,0 -6.59,1.08 -8.75,3.25 -2.89,0 -6.04,0.72 -9.29,2.16l-8.75 2.17 -10.37 3.25 -10.91 4.33 -12.54 4.87 -13.62 5.41 0 -1.08 10.28 -73.97zm371.27 129.71l1.08 1.08 3.79 0 4.33 -1.26 4.33 -1.18 4.33 -1.26 4.33 -0.54 4.87 -0.63 2.17 0 2.71 -0.54 2.17 0 2.71 0c6.13,0 11.91,0.72 17.32,2.17l15.7 4.87 14.07 8.12 12.45 11.36c3.97,4.33 7.21,9.2 9.74,14.61l7.58 16.24 4.33 17.86 1.62 20.03c0,10.82 -0.9,20.39 -2.71,28.68 -1.08,9.38 -3.43,18.04 -7.04,25.98 -1.44,3.61 -3.25,7.49 -5.41,11.63 -2.17,4.15 -4.51,8.03 -7.04,11.64 -3.97,7.21 -9.38,14.43 -16.23,21.65 -3.25,3.25 -6.59,6.4 -10.01,9.47 -3.43,3.07 -6.95,5.86 -10.55,8.39l-22.73 11.91c-6.85,2.89 -15.15,5.23 -24.9,7.04l-26.52 2.16c-9.38,0 -17.5,-0.72 -24.35,-2.16l-21.65 -4.87c-3.25,-1.08 -6.49,-2.35 -9.74,-3.79 -3.25,-1.44 -6.68,-3.43 -10.28,-5.95 -3.61,-2.52 -6.31,-4.51 -8.12,-5.95 -1.8,-1.44 -4.33,-3.97 -7.58,-7.58 -4.69,-4.69 -9.2,-10.28 -13.53,-16.78l-9.74 -19.48 -5.95 -22.19 -1.62 -24.9 0 -3.25 0 -3.25 0 -2.71 0 -1.62 0 -1.62 0 -3.25 0 -3.25 0 -3.25c0.36,-1.8 0.72,-2.89 1.08,-3.25l2.17 -11.91 3.25 -12 4.33 -11.91 5.41 -12.99 6.59 -13.08 7.58 -14.07 8.66 -15.15 10.28 -15.79 83.62 -127.99 86.23 0 -93.09 144.5zm42.76 87.77l-1.62 -7.22c-0.72,-2.98 -1.71,-5.14 -2.8,-6.59l-4.42 -6.13 -5.5 -4.42 -6.04 -3.34 -7.12 -1.62 -7.22 0c-5.14,0 -9.38,0.36 -12.63,1.08 -3.34,0.72 -6.67,1.98 -9.92,3.79 -3.34,1.08 -6.4,3.07 -9.38,6.04l-8.84 8.12 -7.67 9.83 -5.5 10.82 -3.34 11.46 0 12.54 0 8.66 1.62 7.67 3.34 7.04 4.96 5.95 5.5 4.96 6.04 3.79 7.22 2.17 8.75 0c4.42,0 7.94,0 10.46,0l10.47 -3.88 9.38 -6.04c3.34,-2.25 6.31,-5.23 8.84,-8.84l7.12 -10.55 4.96 -11 3.34 -12.18 0 -13.8 0 -1.17 0 -7.12z"/>
 </g>
</svg>
